<svg width="14" height="14" viewBox="0 0 14 14" fill="none" xmlns="http://www.w3.org/2000/svg">
<path d="M13.3015 12.0836H3.93978C3.55394 12.0836 3.24121 11.7709 3.24121 11.385C3.24121 10.9992 3.55394 10.6865 3.93978 10.6865H13.3013C13.6871 10.6865 13.9999 10.9992 13.9999 11.385C13.9999 11.7709 13.6874 12.0836 13.3015 12.0836Z" fill="black"/>
<path d="M11.657 7.69871H3.82559C3.50282 7.69871 3.24121 7.38599 3.24121 7.00014C3.24121 6.6143 3.50282 6.30157 3.82559 6.30157H11.6568C11.9796 6.30157 12.2412 6.6143 12.2412 7.00014C12.2414 7.38599 11.9798 7.69871 11.657 7.69871Z" fill="black"/>
<path d="M13.3015 3.31376H3.93978C3.55394 3.31376 3.24121 3.00104 3.24121 2.61519C3.24121 2.22935 3.55394 1.91663 3.93978 1.91663H13.3013C13.6871 1.91663 13.9999 2.22935 13.9999 2.61519C13.9999 3.00104 13.6874 3.31376 13.3015 3.31376Z" fill="black"/>
</svg>
