<svg width="8" height="9" viewBox="0 0 8 9" fill="none" xmlns="http://www.w3.org/2000/svg">
<path d="M0.660511 9H4.5767C6.5071 9 7.61506 7.96875 7.61506 6.55824C7.61506 5.29688 6.69886 4.50426 5.64205 4.45739V4.37216C6.60085 4.17188 7.27415 3.47727 7.27415 2.48011C7.27415 1.16335 6.25994 0.272727 4.29972 0.272727H0.660511V9ZM2.76989 7.29972V5.22017H4.11222C4.91761 5.22017 5.41193 5.64631 5.41193 6.31534C5.41193 6.93324 4.9858 7.29972 4.07386 7.29972H2.76989ZM2.76989 3.8608V1.94744H3.97159C4.67472 1.94744 5.12216 2.30966 5.12216 2.8892C5.12216 3.50284 4.62784 3.8608 3.9375 3.8608H2.76989Z" fill="black"/>
</svg>
