<svg width="14" height="14" viewBox="0 0 14 14" fill="none" xmlns="http://www.w3.org/2000/svg">
<path d="M2.58938 0H3.79465V4.07915C3.79465 4.36575 4.08443 4.50745 4.30893 4.14762L5.10501 2.87388L5.9011 4.14762C6.12719 4.50586 6.41538 4.36575 6.41538 4.07915V0H10.4563C11.4332 0.00262709 12.2236 0.795252 12.2236 1.77209V12.2327C12.221 13.2077 11.4313 13.9974 10.4563 14H2.58778C2.3726 13.9996 2.16638 13.9137 2.0146 13.7612C1.86203 13.6094 1.77613 13.4032 1.77578 13.188V0.813602C1.77665 0.364608 2.14038 0.000875697 2.58938 0ZM2.43812 11.8983L10.1156 11.9079C10.2829 11.9194 10.4161 12.0526 10.4276 12.2199C10.4404 12.405 10.3007 12.5654 10.1156 12.5782H2.43812L2.43971 13.196C2.43963 13.2328 2.45392 13.2682 2.47952 13.2947C2.50599 13.3203 2.54141 13.3346 2.57823 13.3345H10.4563C11.0609 13.3345 11.5509 12.8444 11.5509 12.2399C11.5509 11.6353 11.0609 11.1452 10.4563 11.1452H2.57823C2.50121 11.1461 2.439 11.2083 2.43812 11.2853V11.8983Z" fill="#7F838A"/>
</svg>
