<svg width="14" height="14" viewBox="0 0 14 14" fill="none" xmlns="http://www.w3.org/2000/svg">
<path d="M13.3015 12.0837H3.93978C3.55394 12.0837 3.24121 11.7709 3.24121 11.3851C3.24121 10.9992 3.55394 10.6865 3.93978 10.6865H13.3013C13.6871 10.6865 13.9999 10.9992 13.9999 11.3851C13.9999 11.7709 13.6874 12.0837 13.3015 12.0837Z" fill="black"/>
<path d="M13.3015 7.69871H3.93978C3.55394 7.69871 3.24121 7.38599 3.24121 7.00014C3.24121 6.6143 3.55394 6.30157 3.93978 6.30157H13.3013C13.6871 6.30157 13.9999 6.6143 13.9999 7.00014C14.0001 7.38599 13.6874 7.69871 13.3015 7.69871Z" fill="black"/>
<path d="M13.3015 3.31382H3.93978C3.55394 3.31382 3.24121 3.0011 3.24121 2.61525C3.24121 2.22941 3.55394 1.91669 3.93978 1.91669H13.3013C13.6871 1.91669 13.9999 2.22941 13.9999 2.61525C13.9999 3.0011 13.6874 3.31382 13.3015 3.31382Z" fill="black"/>
<path d="M0.938177 3.60743C1.45632 3.60743 1.87635 3.1874 1.87635 2.66926C1.87635 2.15112 1.45632 1.73108 0.938177 1.73108C0.420036 1.73108 0 2.15112 0 2.66926C0 3.1874 0.420036 3.60743 0.938177 3.60743Z" fill="black"/>
<path d="M0.938177 7.9383C1.45632 7.9383 1.87635 7.51827 1.87635 7.00013C1.87635 6.48199 1.45632 6.06195 0.938177 6.06195C0.420036 6.06195 0 6.48199 0 7.00013C0 7.51827 0.420036 7.9383 0.938177 7.9383Z" fill="black"/>
<path d="M0.938177 12.2692C1.45632 12.2692 1.87635 11.8492 1.87635 11.3311C1.87635 10.8129 1.45632 10.3929 0.938177 10.3929C0.420036 10.3929 0 10.8129 0 11.3311C0 11.8492 0.420036 12.2692 0.938177 12.2692Z" fill="black"/>
</svg>
