<svg width="14" height="14" viewBox="0 0 14 14" fill="none" xmlns="http://www.w3.org/2000/svg">
<path d="M5.10095 7.72383C5.10095 7.54845 4.9587 7.40637 4.78318 7.40637H3.67429C3.49897 7.40637 3.35669 7.54845 3.35669 7.72383V8.83258C3.35669 9.00818 3.49897 9.15032 3.67429 9.15032H4.78318C4.9587 9.15032 5.10095 9.00818 5.10095 8.83258V7.72383Z" fill="#50A3A5"/>
<path d="M7.87203 7.72383C7.87203 7.54845 7.72975 7.40637 7.55457 7.40637H6.44553C6.27021 7.40637 6.12793 7.54845 6.12793 7.72383V8.83258C6.12793 9.00818 6.27021 9.15032 6.44553 9.15032H7.55457C7.72975 9.15032 7.87203 9.00818 7.87203 8.83258V7.72383Z" fill="#50A3A5"/>
<path d="M10.6437 7.72383C10.6437 7.54845 10.5014 7.40637 10.3261 7.40637H9.21718C9.04166 7.40637 8.89941 7.54845 8.89941 7.72383V8.83258C8.89941 9.00818 9.04166 9.15032 9.21718 9.15032H10.3261C10.5014 9.15032 10.6437 9.00818 10.6437 8.83258V7.72383Z" fill="#50A3A5"/>
<path d="M5.10095 10.4954C5.10095 10.3197 4.9587 10.1777 4.78318 10.1777H3.67429C3.49897 10.1777 3.35669 10.3197 3.35669 10.4954V11.6039C3.35669 11.7794 3.49897 11.9215 3.67429 11.9215H4.78318C4.9587 11.9215 5.10095 11.7794 5.10095 11.6039V10.4954Z" fill="#50A3A5"/>
<path d="M7.87203 10.4954C7.87203 10.3197 7.72975 10.1777 7.55457 10.1777H6.44553C6.27021 10.1777 6.12793 10.3197 6.12793 10.4954V11.6039C6.12793 11.7794 6.27021 11.9215 6.44553 11.9215H7.55457C7.72975 11.9215 7.87203 11.7794 7.87203 11.6039V10.4954Z" fill="#50A3A5"/>
<path d="M10.6437 10.4954C10.6437 10.3197 10.5014 10.1777 10.3262 10.1777H9.21718C9.04166 10.1777 8.89941 10.3197 8.89941 10.4954V11.6039C8.89941 11.7794 9.04166 11.9215 9.21718 11.9215H10.3262C10.5014 11.9215 10.6437 11.7794 10.6437 11.6039V10.4954Z" fill="#50A3A5"/>
<path d="M12.6264 1.55894V3.25247C12.6264 4.01792 12.0054 4.63477 11.2401 4.63477H10.3656C9.60015 4.63477 8.97095 4.01792 8.97095 3.25247V1.55286H5.02923V3.25247C5.02923 4.01792 4.40005 4.63477 3.63477 4.63477H2.76007C1.99475 4.63477 1.37381 4.01792 1.37381 3.25247V1.55894C0.704918 1.5791 0.155273 2.13259 0.155273 2.81289V12.7378C0.155273 13.4309 0.717049 14.0001 1.41015 14.0001H12.59C13.2821 14.0001 13.8449 13.4297 13.8449 12.7378V2.81289C13.8449 2.13259 13.2953 1.5791 12.6264 1.55894ZM12.2202 12.1197C12.2202 12.4193 11.9773 12.6623 11.6777 12.6623H2.29858C1.99894 12.6623 1.75608 12.4193 1.75608 12.1197V6.99317C1.75608 6.69353 1.99891 6.45053 2.29858 6.45053H11.6777C11.9773 6.45053 12.2202 6.69353 12.2202 6.99317L12.2202 12.1197Z" fill="#50A3A5"/>
<path d="M2.75694 3.72677H3.62198C3.88454 3.72677 4.09743 3.5142 4.09743 3.25163V0.475307C4.09743 0.212717 3.88454 0 3.62198 0H2.75694C2.49435 0 2.28149 0.212717 2.28149 0.475307V3.25163C2.28149 3.5142 2.49435 3.72677 2.75694 3.72677Z" fill="#50A3A5"/>
<path d="M10.3543 3.72677H11.2194C11.4818 3.72677 11.6946 3.5142 11.6946 3.25163V0.475307C11.6947 0.212717 11.4818 0 11.2194 0H10.3543C10.0918 0 9.87891 0.212717 9.87891 0.475307V3.25163C9.87891 3.5142 10.0918 3.72677 10.3543 3.72677Z" fill="#50A3A5"/>
</svg>
