<svg width="12" height="12" viewBox="0 0 12 12" fill="none" xmlns="http://www.w3.org/2000/svg">
<path d="M2.81479 11.9967C2.67733 11.9686 2.53987 11.9467 2.40553 11.9123C1.6776 11.7405 1.18085 11.2844 0.877809 10.6158C0.777836 10.394 0.70598 10.1565 0.637248 9.92223C0.568516 9.6848 0.655993 9.45048 0.871561 9.32552C1.54013 8.93187 2.21183 8.54447 2.88353 8.16332C3.10222 8.03836 3.34903 8.0821 3.5396 8.26642C3.73642 8.457 3.927 8.65382 4.1207 8.84439C4.45186 9.17243 4.82988 9.24116 5.25477 9.05059C7.01368 8.26017 8.28209 6.98239 9.06938 5.2266C9.24434 4.83296 9.17248 4.43931 8.86631 4.13002C8.67574 3.93945 8.48516 3.74887 8.29459 3.5583C8.07277 3.33336 8.04153 3.09592 8.19774 2.82724C8.56014 2.19616 8.92567 1.56508 9.28807 0.933994C9.45365 0.64657 9.66922 0.559094 9.98476 0.643446C10.4284 0.762165 10.847 0.937118 11.2063 1.23391C11.6624 1.61194 11.8968 2.10868 11.9717 2.68665C11.9749 2.72102 11.9905 2.75226 11.9999 2.78663C11.9999 2.97408 11.9999 3.16153 11.9999 3.34898C11.9905 3.3771 11.9811 3.40834 11.9749 3.43645C11.8905 3.82073 11.8436 4.21437 11.7218 4.58615C11.1813 6.22634 10.2722 7.65096 9.09125 8.90063C8.30708 9.73166 7.36983 10.3752 6.37635 10.9345C5.61093 11.3625 4.81426 11.7093 3.95199 11.8873C3.7458 11.9311 3.5396 11.9592 3.33341 11.9936C3.15845 11.9967 2.98662 11.9967 2.81479 11.9967Z" fill="#717781"/>
<path d="M3.33008 11.9971C3.53627 11.9628 3.74559 11.9315 3.94866 11.8909C4.81093 11.7097 5.6076 11.3629 6.37302 10.938C7.36651 10.3819 8.30376 9.73522 9.08792 8.90419C10.2689 7.65452 11.1811 6.2299 11.7185 4.58971C11.8403 4.21793 11.8903 3.82429 11.9715 3.44002C11.9778 3.40877 11.9903 3.38066 11.9965 3.35254C11.9965 6.23615 11.9965 9.11663 11.9965 12.0002C9.10979 11.9971 6.21994 11.9971 3.33008 11.9971Z" fill="transparent"/>
<path d="M0.705868 0C0.487176 0.0562351 0.284105 0.146836 0.159138 0.346783C0.0935306 0.44988 0.0529164 0.568599 0.00292969 0.681069C0.00292969 0.456129 0.00292969 0.231189 0.00292969 0C0.237242 0 0.471555 0 0.705868 0Z" fill="#717781"/>
<rect x="2" width="2" height="7" rx="1" fill="#717781"/>
<rect x="5" width="2" height="7" rx="1" fill="#717781"/>
</svg>
