<svg width="24" height="24" viewBox="0 0 24 24" fill="none" xmlns="http://www.w3.org/2000/svg">
    <path d="M11.25 5.25C11.25 4.8375 11.5875 4.5 12 4.5C12.4125 4.5 12.75 4.8375 12.75 5.25V11.5969L16.9172 14.3766C17.2594 14.6063 17.3531 15.0703 17.1234 15.4172C16.8937 15.7594 16.4297 15.8531 16.0828 15.6234L11.5828 12.6234C11.3766 12.4828 11.2078 12.2484 11.2078 12L11.25 5.25ZM12 0C18.6281 0 24 5.37188 24 12C24 18.6281 18.6281 24 12 24C5.37188 24 0 18.6281 0 12C0 5.37188 5.37188 0 12 0ZM1.5 12C1.5 17.7984 6.20156 22.5 12 22.5C17.7984 22.5 22.5 17.7984 22.5 12C22.5 6.20156 17.7984 1.5 12 1.5C6.20156 1.5 1.5 6.20156 1.5 12Z" fill="#22A5A6"/>
</svg>
