<svg width="16" height="16" viewBox="0 0 16 16" fill="none" xmlns="http://www.w3.org/2000/svg">
    <path d="M15.7638 15.7655C15.4512 16.0782 14.9454 16.0782 14.6324 15.7655L7.99987 9.13072L1.3658 15.7655C1.05319 16.0782 0.547411 16.0782 0.234455 15.7655C-0.0781516 15.4529 -0.0781516 14.947 0.234455 14.6341L6.87003 8.00075L0.235455 1.36595C-0.0771517 1.05331 -0.0771517 0.547471 0.235455 0.234481C0.548061 -0.0781602 1.05384 -0.0781602 1.3668 0.234481L7.99987 6.87078L14.6339 0.23598C14.9465 -0.0766603 15.4523 -0.0766603 15.7653 0.23598C16.0779 0.548621 16.0779 1.05446 15.7653 1.36745L9.12971 8.00075L15.7638 14.6356C16.0787 14.9455 16.0787 15.4555 15.7638 15.7655Z" fill="#0D0D0D"/>
</svg>