<svg width="14" height="14" viewBox="0 0 14 14" fill="none" xmlns="http://www.w3.org/2000/svg">
<path d="M8.13333 7.65082C7.98204 7.49956 7.73671 7.49956 7.58542 7.65085L6.71389 8.52238L5.47743 7.28592L6.34896 6.41436C6.50028 6.26304 6.50028 6.01771 6.34896 5.86642C6.19767 5.7151 5.95231 5.7151 5.80102 5.86642L4.92949 6.73798L4.23264 6.04112C4.08134 5.8898 3.83599 5.8898 3.68469 6.04112L2.1436 7.58222C1.06967 8.65612 1.00254 10.3614 1.94224 11.5143C1.92966 11.5241 1.91738 11.5345 1.90582 11.546L0.11349 13.3384C-0.0378301 13.4897 -0.0378301 13.7351 0.11349 13.8864C0.18915 13.962 0.288299 13.9998 0.387447 13.9998C0.486596 13.9998 0.585772 13.962 0.661404 13.8864L2.45376 12.094C2.46533 12.0824 2.47572 12.0702 2.48551 12.0576C3.02349 12.4961 3.6818 12.7153 4.3401 12.7153C5.09246 12.7153 5.84482 12.429 6.41756 11.8562L7.95866 10.3151C8.10998 10.1638 8.10998 9.91844 7.95866 9.76715L7.2618 9.07029L8.13333 8.19876C8.28465 8.04747 8.28465 7.80211 8.13333 7.65082ZM5.87372 10.099C5.82328 10.1494 5.75719 10.1747 5.69107 10.1747C5.62495 10.1747 5.55886 10.1494 5.50841 10.099L3.90082 8.4914C3.79995 8.39053 3.79995 8.22695 3.90082 8.12608C4.00172 8.02524 4.16523 8.02524 4.26613 8.12608L5.87372 9.73368C5.9746 9.83455 5.9746 9.99812 5.87372 10.099Z" fill="#7F838A"/>
<path d="M13.8864 0.661432C14.0377 0.510139 14.0377 0.264811 13.8864 0.11349C13.7352 -0.0378301 13.4898 -0.0378301 13.3385 0.11349L11.5461 1.90582C11.5346 1.91736 11.5242 1.92961 11.5144 1.94219C10.9918 1.51527 10.3437 1.28309 9.65979 1.28309C8.87502 1.28309 8.13723 1.58871 7.58232 2.14363L6.04122 3.68472C5.8899 3.83604 5.8899 4.08134 6.04122 4.23266L9.76725 7.95866C9.8399 8.03134 9.93845 8.07213 10.0412 8.07213C10.144 8.07213 10.2425 8.03131 10.3152 7.95866L11.8563 6.41756C12.4112 5.86265 12.7168 5.12486 12.7168 4.3401C12.7168 3.6562 12.4846 3.00804 12.0577 2.48542C12.0702 2.47563 12.0825 2.46527 12.094 2.45373L13.8864 0.661432ZM10.1369 5.83591C10.0864 5.88636 10.0203 5.91157 9.95422 5.91157C9.88811 5.91157 9.82202 5.88636 9.77157 5.83591L8.164 4.22834C8.06313 4.12747 8.06313 3.9639 8.164 3.86303C8.2649 3.76216 8.42842 3.76216 8.52931 3.86303L10.1369 5.4706C10.2378 5.57147 10.2378 5.73506 10.1369 5.83591Z" fill="#7F838A"/>
</svg>
