<svg width="24" height="24" viewBox="0 0 24 24" fill="none" xmlns="http://www.w3.org/2000/svg">
    <path d="M18 0H4.5C2.84297 0 1.5 1.34297 1.5 3V21C1.5 22.657 2.84297 24 4.5 24H18C19.657 24 21 22.657 21 21V3C21 1.34297 19.6547 0 18 0ZM11.25 6C12.907 6 14.25 7.34297 14.25 9C14.25 10.657 12.907 12 11.25 12C9.59344 12 8.25 10.657 8.25 9C8.25 7.34297 9.59531 6 11.25 6ZM15.75 18H6.75C6.3375 18 6 17.6625 6 17.25C6 15.1781 7.67812 13.5 9.75 13.5H12.75C14.8209 13.5 16.5 15.1791 16.5 17.25C16.5 17.6625 16.1625 18 15.75 18ZM23.25 3H22.5V7.5H23.25C23.6625 7.5 24 7.1625 24 6.75V3.75C24 3.33562 23.6625 3 23.25 3ZM23.25 9H22.5V13.5H23.25C23.6625 13.5 24 13.1625 24 12.75V9.75C24 9.3375 23.6625 9 23.25 9ZM23.25 15H22.5V19.5H23.25C23.6642 19.5 24 19.1642 24 18.75V15.75C24 15.3375 23.6625 15 23.25 15Z" fill="#22A5A6"/>
</svg>