<svg width="12" height="12" viewBox="0 0 12 12" fill="none" xmlns="http://www.w3.org/2000/svg">
<g clip-path="url(#clip0)">
<path fill-rule="evenodd" clip-rule="evenodd" d="M11.8168 4.07034C11.6183 2.89526 11.0105 1.87784 10.1544 1.15439C9.29778 0.430206 8.19338 0 7.00283 0V0.00137329C6.80937 0.00137329 6.65254 0.158203 6.65254 0.351654V4.86017C6.6509 4.88644 6.65218 4.91336 6.65666 4.94046C6.68852 5.13162 6.86934 5.2608 7.0605 5.22894L11.5284 4.47418C11.7195 4.44223 11.8486 4.26141 11.8168 4.07034Z" fill="#000"/>
<path d="M2.17796 10.0047C1.95228 10.2304 1.9705 10.6032 2.21952 10.8028C3.15089 11.5492 4.33613 12 5.62016 12V11.9984H5.62391C6.86115 11.9984 8.09831 11.5785 9.10328 10.7384C9.3058 10.569 9.32063 10.2629 9.13395 10.0762L5.9372 6.87946C5.76206 6.70441 5.47825 6.70441 5.3032 6.87946L2.17796 10.0047Z" fill="#000"/>
<path d="M11.0282 5.99979C11.0065 5.79288 10.8325 5.64099 10.6323 5.64099C10.6083 5.64099 10.5839 5.64319 10.5593 5.64777L7.29679 6.25192C6.94184 6.31766 6.80616 6.75446 7.06141 7.0097L9.54935 9.49765C9.7548 9.7031 10.0968 9.6608 10.2495 9.41351C10.5406 8.94229 10.7616 8.4231 10.8982 7.87076C10.9004 7.86179 10.9025 7.85291 10.9047 7.84393C10.9309 7.7359 10.954 7.62705 10.9734 7.51755C11.0613 7.02637 11.0824 6.51651 11.0282 5.99979Z" fill="#000"/>
<path d="M5.12256 6.06512L5.48849 5.69919C5.57254 5.61514 5.61978 5.50116 5.61978 5.38223V1.54929C5.61978 1.328 5.43997 1.15076 5.22263 1.15076C5.21228 1.15076 5.20184 1.15121 5.19131 1.15195C2.39145 1.37048 0.1875 3.71167 0.1875 6.56766C0.1875 7.61255 0.482574 8.58859 0.993896 9.41696C1.14532 9.66232 1.48737 9.70032 1.69125 9.49643L5.12256 6.06512Z" fill="#000"/>
</g>
<defs>
<clipPath id="clip0">
<rect width="12" height="12" fill="white"/>
</clipPath>
</defs>
</svg>
