<svg width="14" height="14" viewBox="0 0 14 14" fill="none" xmlns="http://www.w3.org/2000/svg">
<g clip-path="url(#clip0)">
<path d="M4 3.79545V10H0V3.79545C0 3.35636 0.373333 3 0.833333 3H3.16667C3.62667 3 4 3.35636 4 3.79545Z" fill="#000"/>
<path d="M9 0.833333V10H5V0.833333C5 0.373333 5.37333 0 5.83333 0H8.16667C8.62667 0 9 0.373333 9 0.833333Z" fill="#000"/>
<path d="M14 3.25V10H10V3.25C10 2.56 10.3733 2 10.8333 2H13.1667C13.6267 2 14 2.56 14 3.25Z" fill="#000"/>
<path d="M14.5 12H-0.5C-0.776 12 -1 11.776 -1 11.5C-1 11.224 -0.776 11 -0.5 11H14.5C14.776 11 15 11.224 15 11.5C15 11.776 14.776 12 14.5 12Z" fill="#000"/>
</g>
<defs>
<clipPath id="clip0">
<rect width="14" height="14" fill="white"/>
</clipPath>
</defs>
</svg>
