<svg width="14" height="14" viewBox="0 0 14 14" fill="none" xmlns="http://www.w3.org/2000/svg">
<path d="M1.31942 1.31938C3.07861 -0.439811 5.94087 -0.439783 7.70006 1.3194C8.90168 2.52103 9.31905 4.29183 8.79875 5.89842L13.8798 10.9795C13.9567 11.0564 14 11.1606 14 11.2695V13.5899C14 13.8166 13.8166 14 13.5898 14H11.2695C11.1606 14 11.0564 13.9568 10.9795 13.8798L10.3995 13.2994C10.311 13.2109 10.2678 13.0868 10.2822 12.9622L10.3543 12.3389L9.49072 12.2576C9.29444 12.2392 9.13943 12.0842 9.121 11.8879L9.03968 11.0243L8.41643 11.0968C8.30069 11.1124 8.18412 11.0736 8.0964 10.9959C8.00909 10.9178 7.95903 10.8064 7.95903 10.6895V9.92579H7.20921C7.10027 9.92579 6.99612 9.88254 6.91923 9.80562L5.8674 8.7677C4.26122 9.28841 2.52104 8.90248 1.31942 7.70004C-0.439767 5.94088 -0.439767 3.07856 1.31942 1.31938ZM2.47975 4.21973C2.95961 4.69958 3.73986 4.69958 4.21972 4.21973C4.69957 3.73987 4.69957 2.95962 4.21972 2.47976C3.73986 1.99991 2.95961 1.99991 2.47975 2.47976C1.9999 2.95962 1.99992 3.73987 2.47975 4.21973Z" fill="#7F838A"/>
</svg>
