<svg xmlns="http://www.w3.org/2000/svg" id="ЛОГО" viewBox="0 0 543.98 98.1"><defs><style>.cls-1{fill:#ff421f;}.cls-2{fill:#53545e;}.cls-3{fill:#22a5a6;}</style></defs><path class="cls-1" d="M75.3,20.11a.87.87,0,0,0-.13-.67c-1.33,1.07-2.67,2.12-4,3.21a83.14,83.14,0,0,0-7.38,6.79c-.48.46-1,.91-1.42,1.4a88.76,88.76,0,0,0-6.61,7.61,32.22,32.22,0,0,0-2.28,2.92A96.35,96.35,0,0,0,47.15,51h0a106.62,106.62,0,0,0-7,14c-.3.71-.61,1.41-.89,2.13C38.1,70.07,37,73,36.12,76c-.33.75.33.41.52.41,12.64,0,25.29,0,37.94,0,.65,0,.74-.2.74-.78Q75.29,47.88,75.3,20.11Z"/><path class="cls-1" d="M18.44,69.78a84.11,84.11,0,0,1-7-14.26c0-.13-.06-.32-.24-.38-.13.14-.08.31-.08.46q0,8.74,0,17.49c0,.4,0,.81,0,1.21v1.45a5,5,0,0,0,.06.54h0c.22.21.48.1.72.1h11c-1.59-2.14-2.95-4.27-4.34-6.37A1.45,1.45,0,0,0,18.44,69.78Z"/><path class="cls-2" d="M73.51,12.52c-.26-.23-.58-.11-.86-.11H11.18a1.21,1.21,0,0,0-.08.68q0,11.19,0,22.38a1.1,1.1,0,0,0,.08.67h0a.92.92,0,0,0,.3.51,24,24,0,0,0,1.77,2.8h0a28.55,28.55,0,0,0,2,3.06,27.75,27.75,0,0,0,2.25,3,25.72,25.72,0,0,0,2.76,3.32,23,23,0,0,0,3.36,3.33,18.23,18.23,0,0,0,4.36,3c.34.17.45,0,.59-.25l1.9-2.84h0c.75-1,1.51-2,2.16-3.08.9-1,1.71-2.17,2.51-3.29s1.69-2.13,2.53-3.19h0c.83-1,1.69-1.92,2.44-3,1-1,1.85-2,2.77-3.06h0c1-1,2-2,2.91-3.15,1.17-1,2.24-2.12,3.33-3.23S51.5,28,52.61,26.92C53.82,26,54.93,25,56.07,24l4-3.12h0l4.82-3.4a2.86,2.86,0,0,0,.84-.46l3.73-2.33h0Z"/><path class="cls-3" d="M86.12,71.89l3.31-7c4.66,4.21,12.64,7.26,20.7,7.26,10.84,0,15.5-4.22,15.5-9.68,0-15.32-38-5.65-38-28.94,0-9.68,7.53-17.92,24-17.92,7.35,0,15,2,20.16,5.55l-2.95,7.17a32.46,32.46,0,0,0-17.21-5.11c-10.66,0-15.23,4.48-15.23,10,0,15.32,38,5.73,38,28.76,0,9.59-7.7,17.83-24.28,17.83C100.54,79.77,91.13,76.55,86.12,71.89Z"/><path class="cls-3" d="M167.65,71.89l3.32-7c4.66,4.21,12.63,7.26,20.69,7.26,10.84,0,15.5-4.22,15.5-9.68,0-15.32-38-5.65-38-28.94,0-9.68,7.53-17.92,24-17.92,7.34,0,15,2,20.16,5.55l-3,7.17a32.45,32.45,0,0,0-17.2-5.11c-10.67,0-15.24,4.48-15.24,10,0,15.32,38,5.73,38,28.76,0,9.59-7.7,17.83-24.28,17.83C182.08,79.77,172.67,76.55,167.65,71.89Z"/><path class="cls-3" d="M269.91,58.18H231.38c1.08,8.33,7.8,13.89,17.2,13.89a17.73,17.73,0,0,0,13.71-5.74L267,71.89c-4.3,5-10.84,7.7-18.72,7.7-15.33,0-25.54-10.12-25.54-24.28s10.12-24.19,23.83-24.19S270.09,41,270.09,55.58C270.09,56.3,270,57.37,269.91,58.18ZM231.38,52h30.47a15.33,15.33,0,0,0-30.47,0Z"/><path class="cls-3" d="M280.31,12.57h8.6V79.05h-8.6Z"/><path class="cls-3" d="M346.33,58.18H307.8c1.08,8.33,7.8,13.89,17.2,13.89a17.73,17.73,0,0,0,13.71-5.74l4.75,5.56c-4.3,5-10.84,7.7-18.72,7.7-15.33,0-25.54-10.12-25.54-24.28S309.32,31.12,323,31.12,346.51,41,346.51,55.58C346.51,56.3,346.42,57.37,346.33,58.18ZM307.8,52h30.47a15.33,15.33,0,0,0-30.47,0Z"/><path class="cls-3" d="M353.32,55.31c0-14.16,10.48-24.19,25.09-24.19,8.51,0,15.59,3.49,19.35,10.12l-6.54,4.22a14.81,14.81,0,0,0-12.9-6.81C369,38.65,362,45.19,362,55.31c0,10.3,7,16.76,16.31,16.76a14.81,14.81,0,0,0,12.9-6.81l6.54,4.12C394,76,386.92,79.59,378.41,79.59,363.8,79.59,353.32,69.47,353.32,55.31Z"/><path class="cls-3" d="M436.14,76.28c-2.6,2.24-6.55,3.31-10.4,3.31-9.59,0-15.05-5.28-15.05-14.87V38.65h-8.07V31.57h8.07V21.17h8.6v10.4h13.62v7.08H419.29V64.36c0,5.11,2.69,8,7.44,8a10.87,10.87,0,0,0,6.72-2.24Z"/><path class="cls-3" d="M438.76,55.31c0-14.16,10.48-24.19,24.73-24.19s24.64,10,24.64,24.19-10.39,24.28-24.64,24.28S438.76,69.47,438.76,55.31Zm40.68,0c0-10.12-6.81-16.66-15.95-16.66s-16,6.54-16,16.66,6.9,16.76,16,16.76S479.44,65.44,479.44,55.31Z"/><path class="cls-3" d="M523.93,31.12v8.33a15,15,0,0,0-2-.09c-9.23,0-15,5.65-15,16V79.05h-8.6V31.57h8.24v8C509.69,34,515.6,31.12,523.93,31.12Z"/></svg>