<svg width="9" height="14" viewBox="0 0 9 14" fill="none" xmlns="http://www.w3.org/2000/svg">
<path d="M8.96 7.23057C8.96 6.95057 8.74588 6.73645 8.46588 6.73645C8.18588 6.73645 7.97177 6.95057 7.97177 7.23057C7.97177 9.15763 6.40706 10.7223 4.48 10.7223C2.55294 10.7223 0.988235 9.15763 0.988235 7.23057C0.988235 6.95057 0.774118 6.73645 0.494118 6.73645C0.214118 6.73645 0 6.95057 0 7.23057C0 9.51998 1.71294 11.447 3.98588 11.6941V13.0117H2.19059C1.91059 13.0117 1.69647 13.2259 1.69647 13.5059C1.69647 13.7859 1.91059 14 2.19059 14H6.76941C7.04941 14 7.26353 13.7859 7.26353 13.5059C7.26353 13.2259 7.04941 13.0117 6.76941 13.0117H4.97412V11.6941C7.24706 11.447 8.96 9.51998 8.96 7.23057Z" fill="#50a3a5"/>
<path d="M4.48008 0C2.96479 0 1.72949 1.23529 1.72949 2.75059V7.21412C1.72949 8.74588 2.96479 9.96471 4.48008 9.98118C5.99537 9.98118 7.23067 8.74588 7.23067 7.23059V2.75059C7.23067 1.23529 5.99537 0 4.48008 0Z" fill="#50a3a5"/>
</svg>
