<svg width="13" height="16" viewBox="0 0 13 16" fill="none" xmlns="http://www.w3.org/2000/svg">
<path d="M8.96 9.23057C8.96 8.95057 8.74588 8.73645 8.46588 8.73645C8.18588 8.73645 7.97177 8.95057 7.97177 9.23057C7.97177 11.1576 6.40706 12.7223 4.48 12.7223C2.55294 12.7223 0.988235 11.1576 0.988235 9.23057C0.988235 8.95057 0.774118 8.73645 0.494118 8.73645C0.214118 8.73645 0 8.95057 0 9.23057C0 11.52 1.71294 13.447 3.98588 13.6941V15.0117H2.19059C1.91059 15.0117 1.69647 15.2259 1.69647 15.5059C1.69647 15.7859 1.91059 16 2.19059 16H6.76941C7.04941 16 7.26353 15.7859 7.26353 15.5059C7.26353 15.2259 7.04941 15.0117 6.76941 15.0117H4.97412V13.6941C7.24706 13.447 8.96 11.52 8.96 9.23057Z" fill="#7F838A"/>
<path d="M4.48008 2C2.96479 2 1.72949 3.23529 1.72949 4.75059V9.21412C1.72949 10.7459 2.96479 11.9647 4.48008 11.9812C5.99537 11.9812 7.23067 10.7459 7.23067 9.23059V4.75059C7.23067 3.23529 5.99537 2 4.48008 2Z" fill="#7F838A"/>
<path d="M7 1C7 0.447715 7.44772 0 8 0H12C12.5523 0 13 0.447715 13 1V3C13 3.55228 12.5523 4 12 4H8C7.44772 4 7 3.55228 7 3V1Z" fill="#7F838A"/>
<path d="M8 5L9 4H8L8 5Z" fill="#7F838A"/>
</svg>
