<svg width="24" height="24" viewBox="0 0 24 24" fill="none" xmlns="http://www.w3.org/2000/svg">
    <path d="M11.5 18C12.3283 18 13 18.6703 13 19.5C13 20.3297 12.3283 21 11.5 21C10.6717 21 10 20.3297 10 19.5C10 18.6703 10.6717 18 11.5 18ZM11.5 10.5C12.3283 10.5 13 11.1703 13 12C13 12.8297 12.3283 13.5 11.5 13.5C10.6717 13.5 10 12.8297 10 12C10 11.1703 10.6717 10.5 11.5 10.5ZM11.5 6C10.6717 6 10 5.32969 10 4.5C10 3.67172 10.6717 3 11.5 3C12.3283 3 13 3.67172 13 4.5C13 5.32969 12.3283 6 11.5 6Z" fill="#0D0D0D"/>
</svg>