<svg width="14" height="14" viewBox="0 0 14 14" fill="none" xmlns="http://www.w3.org/2000/svg">
<g clip-path="url(#clip0)">
<path d="M13.3015 12.0836H3.93978C3.55394 12.0836 3.24121 11.7709 3.24121 11.385C3.24121 10.9992 3.55394 10.6865 3.93978 10.6865H13.3013C13.6871 10.6865 13.9999 10.9992 13.9999 11.385C13.9999 11.7709 13.6874 12.0836 13.3015 12.0836Z" fill="black"/>
<path d="M13.3015 7.69871H3.93978C3.55394 7.69871 3.24121 7.38599 3.24121 7.00014C3.24121 6.6143 3.55394 6.30157 3.93978 6.30157H13.3013C13.6871 6.30157 13.9999 6.6143 13.9999 7.00014C14.0001 7.38599 13.6874 7.69871 13.3015 7.69871Z" fill="black"/>
<path d="M13.3015 3.31376H3.93978C3.55394 3.31376 3.24121 3.00104 3.24121 2.61519C3.24121 2.22935 3.55394 1.91663 3.93978 1.91663H13.3013C13.6871 1.91663 13.9999 2.22935 13.9999 2.61519C13.9999 3.00104 13.6874 3.31376 13.3015 3.31376Z" fill="black"/>
<path d="M1.82741 1.18182H1.60724L1.1527 1.48366V1.70739L1.59659 1.41264H1.60724V3H1.82741V1.18182Z" fill="black"/>
<path d="M1.18821 8H2.33523V7.80469H1.49006V7.79048L1.89844 7.35369C2.21094 7.019 2.30327 6.86275 2.30327 6.66122C2.30327 6.38068 2.07599 6.15696 1.75639 6.15696C1.43768 6.15696 1.19531 6.37358 1.19531 6.69318H1.40483C1.40483 6.48633 1.53888 6.34872 1.74929 6.34872C1.94638 6.34872 2.0973 6.46946 2.0973 6.66122C2.0973 6.82901 1.99876 6.9533 1.78835 7.18324L1.18821 7.8402V8Z" fill="black"/>
<path d="M1.80256 13.0249C2.15501 13.0249 2.4169 12.8038 2.4169 12.5064C2.4169 12.2756 2.28018 12.1078 2.05114 12.0696V12.0554C2.23491 11.9995 2.34943 11.8485 2.34943 11.6435C2.34943 11.386 2.14613 11.157 1.80966 11.157C1.49538 11.157 1.23438 11.3505 1.22372 11.6364H1.43679C1.44478 11.4553 1.61701 11.3487 1.80611 11.3487C2.00675 11.3487 2.13636 11.4703 2.13636 11.6541C2.13636 11.8459 1.98633 11.9702 1.7706 11.9702H1.625V12.1655H1.7706C2.0467 12.1655 2.20028 12.3058 2.20028 12.5064C2.20028 12.699 2.03249 12.8295 1.79901 12.8295C1.5886 12.8295 1.4217 12.7212 1.40838 12.5455H1.18466C1.19798 12.8313 1.45011 13.0249 1.80256 13.0249Z" fill="black"/>
</g>
<defs>
<clipPath id="clip0">
<rect width="14" height="14" fill="white"/>
</clipPath>
</defs>
</svg>
