<svg width="14" height="14" viewBox="0 0 14 14" fill="none" xmlns="http://www.w3.org/2000/svg">
    <path d="M13.3889 6.16666H7.83331V0.611106C7.83331 0.457634 7.70901 0.333328 7.55553 0.333328H6.44442C6.29095 0.333328 6.16665 0.457634 6.16665 0.611106V6.16666H0.611091C0.457619 6.16666 0.333313 6.29097 0.333313 6.44444V7.55555C0.333313 7.70902 0.457619 7.83333 0.611091 7.83333H6.16665V13.3889C6.16665 13.5424 6.29095 13.6667 6.44442 13.6667H7.55553C7.70901 13.6667 7.83331 13.5424 7.83331 13.3889V7.83333H13.3889C13.5423 7.83333 13.6666 7.70902 13.6666 7.55555V6.44444C13.6666 6.29097 13.5423 6.16666 13.3889 6.16666Z" fill="white"/>
</svg>