<svg width="24" height="24" viewBox="0 0 24 24" xmlns="http://www.w3.org/2000/svg">
  <path fill-rule="evenodd" clip-rule="evenodd" d="M8.5 3C8.5 2.44772 8.94772 2 9.5 2H14.5C15.0523 2 15.5 2.44772 15.5 3V8C15.5 8.55228 15.0523 9 14.5 9H9.5C8.94772 9 8.5 8.55228 8.5 8V3ZM10.25 3.5C10.1119 3.5 10 3.61193 10 3.75V7.25C10 7.38807 10.1119 7.5 10.25 7.5H13.75C13.8881 7.5 14 7.38807 14 7.25V3.75C14 3.61193 13.8881 3.5 13.75 3.5H10.25ZM12.75 11.25V10H11.25V11.25H6.5C5.5335 11.25 4.75 12.0335 4.75 13V14H6.25V13C6.25 12.8619 6.36193 12.75 6.5 12.75H17.5C17.6381 12.75 17.75 12.8619 17.75 13V14H19.25V13C19.25 12.0335 18.4665 11.25 17.5 11.25H12.75ZM2 16C2 15.4477 2.44772 15 3 15H8C8.55228 15 9 15.4477 9 16V21C9 21.5523 8.55228 22 8 22H3C2.44772 22 2 21.5523 2 21V16ZM3.75 16.5C3.61193 16.5 3.5 16.6119 3.5 16.75V20.25C3.5 20.3881 3.61193 20.5 3.75 20.5H7.25C7.38807 20.5 7.5 20.3881 7.5 20.25V16.75C7.5 16.6119 7.38807 16.5 7.25 16.5H3.75ZM15 16C15 15.4477 15.4477 15 16 15H21C21.5523 15 22 15.4477 22 16V21C22 21.5523 21.5523 22 21 22H16C15.4477 22 15 21.5523 15 21V16ZM16.75 16.5C16.6119 16.5 16.5 16.6119 16.5 16.75V20.25C16.5 20.3881 16.6119 20.5 16.75 20.5H20.25C20.3881 20.5 20.5 20.3881 20.5 20.25V16.75C20.5 16.6119 20.3881 16.5 20.25 16.5H16.75Z" class="main"/>
  <path fill-rule="evenodd" clip-rule="evenodd" d="M17.25 17.25H19.75V19.75H17.25V17.25ZM4.25 17.25H6.75V19.75H4.25V17.25Z" class="accent" />
</svg>
