<svg width="13" height="13" viewBox="0 0 13 13" fill="none" xmlns="http://www.w3.org/2000/svg">
<g clip-path="url(#clip0_252_100)">
<path d="M11.4579 9.00199C13.5146 6.94528 13.5146 3.59875 11.4579 1.54204C9.40123 -0.514665 6.05474 -0.514665 3.99808 1.54204C2.25324 3.28688 1.98899 5.88189 3.2046 7.90832C3.2046 7.90832 3.29192 8.05481 3.17399 8.17266C2.50121 8.8454 0.482735 10.8639 0.482735 10.8639C-0.0529358 11.3995 -0.180457 12.1485 0.294574 12.6237L0.376363 12.7054C0.851394 13.1805 1.60044 13.053 2.13607 12.5173C2.13607 12.5173 4.15027 10.5031 4.82167 9.83173C4.94525 9.70815 5.0917 9.79546 5.0917 9.79546C7.11809 11.011 9.7131 10.7468 11.4579 9.00199ZM4.97193 8.0281C3.45223 6.5084 3.45227 4.03571 4.97197 2.51602C6.49166 0.996362 8.96435 0.99632 10.484 2.51602C12.0037 4.03567 12.0037 6.5084 10.484 8.0281C8.96431 9.54771 6.49166 9.54771 4.97193 8.0281Z" fill="#7F838A"/>
<path d="M5.30801 4.95923C5.23728 4.95923 5.16537 4.94533 5.09606 4.91605C4.8192 4.79888 4.68967 4.47943 4.80685 4.20252C5.54333 2.46209 7.55841 1.64532 9.29881 2.3818C9.57567 2.49898 9.7052 2.81843 9.58802 3.09533C9.4708 3.37224 9.15143 3.50168 8.87445 3.38455C7.68702 2.88209 6.31206 3.43937 5.80964 4.6268C5.72173 4.83447 5.52013 4.95923 5.30801 4.95923Z" fill="#7F838A"/>
</g>
<defs>
<clipPath id="clip0_252_100">
<rect width="13" height="13" fill="white"/>
</clipPath>
</defs>
</svg>
