<svg width="14" height="14" viewBox="0 0 14 14" fill="none" xmlns="http://www.w3.org/2000/svg">
<g clip-path="url(#clip0)">
<path d="M10.7047 2.54029C10.4436 2.35227 10.0811 2.41111 9.89365 2.67161C9.70533 2.9318 9.76431 3.29526 10.0248 3.48283C12.089 4.97153 12.7573 7.70678 11.6142 9.98624C10.9952 11.2202 9.93293 12.1397 8.62315 12.574C7.31367 13.0093 5.91246 12.9075 4.6788 12.289C3.44544 11.6699 2.5261 10.6078 2.09108 9.2986C1.65651 7.98821 1.75795 6.58791 2.37705 5.35409C3.12883 3.85447 4.56932 2.80989 6.23043 2.5597C6.24165 2.55849 6.2512 2.55424 6.26242 2.55167L6.28623 3.69966C6.28941 3.82688 6.36841 3.93999 6.48653 3.98609C6.6051 4.03233 6.74005 4.00277 6.8277 3.91088L8.48107 2.18548C8.60146 2.05993 8.59691 1.86069 8.47167 1.74075L6.74627 0.0875278C6.65438 -0.000720863 6.51898 -0.0245268 6.40253 0.0270274C6.36447 0.0434035 6.33035 0.0678159 6.30215 0.0970805C6.24574 0.156065 6.21344 0.236428 6.21435 0.321341L6.23725 1.4149C6.17887 1.40534 6.11898 1.40171 6.05711 1.4108C4.02254 1.71725 2.25848 2.99685 1.33763 4.83324C-0.227345 7.95318 1.03861 11.7641 4.15825 13.3285C5.06636 13.7841 6.0327 14 6.98554 14C9.30639 14 11.5443 12.7204 12.6538 10.5083C14.0542 7.71558 13.2348 4.36425 10.7047 2.54029Z" fill="#50a3a5"/>
</g>
<defs>
<clipPath id="clip0">
<rect width="14" height="14" fill="white"/>
</clipPath>
</defs>
</svg>
