<svg width="14" height="14" viewBox="0 0 14 14" fill="none" xmlns="http://www.w3.org/2000/svg">
<path d="M7 12.0625C7.22652 12.0625 7.41016 11.8788 7.41016 11.6523V6.14502C7.41016 5.9185 7.22652 5.73486 7 5.73486C6.77348 5.73486 6.58984 5.9185 6.58984 6.14502V11.6523C6.58984 11.8788 6.77348 12.0625 7 12.0625Z" fill="#7F838A"/>
<path d="M4.74208 11.6909C4.76341 11.9168 4.96398 12.082 5.18899 12.0607C5.41452 12.0394 5.58006 11.8393 5.55876 11.6138L5.03874 6.10648C5.01744 5.88098 4.81772 5.71538 4.59183 5.73671C4.3663 5.75801 4.20076 5.95809 4.22206 6.18362L4.74208 11.6909Z" fill="#7F838A"/>
<path d="M8.81156 12.0607C9.03681 12.082 9.23713 11.9166 9.25846 11.6909L9.77849 6.18364C9.79979 5.9581 9.63422 5.75803 9.40872 5.73673C9.18286 5.71529 8.98311 5.881 8.96181 6.1065L8.44179 11.6138C8.42049 11.8393 8.58605 12.0394 8.81156 12.0607Z" fill="#7F838A"/>
<path d="M1.57666 4.61768H1.82185L3.00988 13.6434C3.03673 13.8474 3.2107 14 3.41654 14H10.5843C10.7901 14 10.9641 13.8474 10.9909 13.6434L12.179 4.61768H12.4242C12.6507 4.61768 12.8343 4.43404 12.8343 4.20752V2.41298C12.8343 2.18646 12.6507 2.00282 12.4242 2.00282H8.91441V1.84119C8.91441 0.825973 8.08844 0 7.07322 0H6.92761C5.91239 0 5.08642 0.825973 5.08642 1.84119V2.00282H1.57666C1.35014 2.00282 1.1665 2.18646 1.1665 2.41298V4.20752C1.1665 4.43404 1.35012 4.61768 1.57666 4.61768ZM10.2246 13.1797H3.77622L2.64925 4.61768H11.3516L10.2246 13.1797ZM5.90671 1.84119C5.90671 1.27829 6.36469 0.820312 6.92759 0.820312H7.07319C7.63609 0.820312 8.09407 1.27829 8.09407 1.84119V2.00282H5.90671V1.84119ZM1.98682 2.82313H12.014V3.79736C11.9263 3.79736 2.09619 3.79736 1.98682 3.79736V2.82313Z" fill="#7F838A"/>
</svg>
