<svg width="18" height="18" viewBox="0 0 18 18" fill="none" xmlns="http://www.w3.org/2000/svg">
    <path d="M17.2186 16.3433L13.0195 12.1443C12.9447 12.0694 12.847 12.0304 12.7429 12.0304H12.4076C13.5241 10.8227 14.2076 9.2115 14.2076 7.4375C14.2076 3.69744 11.1772 0.666992 7.43713 0.666992C3.69708 0.666992 0.666626 3.69744 0.666626 7.4375C0.666626 11.1775 3.69708 14.208 7.43713 14.208C9.21113 14.208 10.8224 13.5244 12.03 12.4112V12.7432C12.03 12.8474 12.0723 12.945 12.1439 13.0199L16.3429 17.2189C16.4959 17.3719 16.7433 17.3719 16.8963 17.2189L17.2186 16.8967C17.3715 16.7437 17.3715 16.4963 17.2186 16.3433ZM7.43713 13.1664C4.26997 13.1664 1.70824 10.6047 1.70824 7.4375C1.70824 4.27033 4.26997 1.70861 7.43713 1.70861C10.6043 1.70861 13.166 4.27033 13.166 7.4375C13.166 10.6047 10.6043 13.1664 7.43713 13.1664Z" fill="#7C7C7C"/>
</svg>
