<svg width="14" height="14" viewBox="0 0 14 14" fill="none" xmlns="http://www.w3.org/2000/svg">
<path d="M13.6883 5.81328L12.0504 5.41133C11.9602 5.12422 11.8453 4.84531 11.7059 4.57461L12.5426 3.18008C12.641 3.01602 12.6164 2.81094 12.4852 2.67969L11.3203 1.51484C11.1891 1.38359 10.984 1.35898 10.8199 1.45742L9.42539 2.29414C9.15469 2.15469 8.87578 2.03984 8.58867 1.94961L8.19492 0.311719C8.1457 0.13125 7.98164 0 7.79297 0H6.15234C5.96367 0 5.79961 0.13125 5.75039 0.311719L5.35664 1.94961C5.06953 2.03984 4.79063 2.15469 4.51992 2.29414L3.12539 1.45742C2.96133 1.35898 2.75625 1.38359 2.625 1.51484L1.46016 2.67969C1.32891 2.81094 1.3043 3.01602 1.40273 3.18008L2.23945 4.57461C2.1 4.84531 1.98516 5.12422 1.89492 5.41133L0.311719 5.81328C0.13125 5.8543 0 6.01836 0 6.20703V7.84766C0 8.03633 0.13125 8.20039 0.311719 8.24141L1.89492 8.64336C1.98516 8.93047 2.1 9.20938 2.23945 9.48008L1.40273 10.8746C1.3043 11.0387 1.32891 11.2437 1.46016 11.375L2.625 12.5398C2.75625 12.6711 2.96133 12.6957 3.12539 12.5973L4.51992 11.7605C4.79063 11.9 5.06953 12.0148 5.35664 12.1051L5.75039 13.6883C5.79961 13.8688 5.96367 14 6.15234 14H7.79297C7.98164 14 8.1457 13.8688 8.19492 13.6883L8.58867 12.1051C8.87578 12.0148 9.15469 11.9 9.42539 11.7605L10.8199 12.5973C10.984 12.6957 11.1891 12.6711 11.3203 12.5398L12.4852 11.375C12.6164 11.2437 12.641 11.0387 12.5426 10.8746L11.7059 9.48008C11.8453 9.20938 11.9602 8.93047 12.0504 8.64336L13.6883 8.24141C13.8688 8.20039 14 8.03633 14 7.84766V6.20703C14 6.01836 13.8688 5.8543 13.6883 5.81328ZM6.97266 9.07812C5.84062 9.07812 4.92188 8.15938 4.92188 7.02734C4.92188 5.89531 5.84062 4.97656 6.97266 4.97656C8.10469 4.97656 9.02344 5.89531 9.02344 7.02734C9.02344 8.15938 8.10469 9.07812 6.97266 9.07812Z" fill="#7F838A"/>
</svg>
