<svg width="14" height="12" viewBox="0 0 14 12" fill="none" xmlns="http://www.w3.org/2000/svg">
<path d="M13.6047 0.472314C13.341 0.208659 13.0242 0.0769043 12.6539 0.0769043H1.34618C0.976 0.0769043 0.659065 0.208659 0.39541 0.472314C0.131813 0.736029 0 1.05285 0 1.42312V10.577C0 10.9473 0.131813 11.2639 0.39541 11.5277C0.659065 11.7914 0.97597 11.923 1.34618 11.923H12.6539C13.0242 11.923 13.3409 11.7914 13.6047 11.5277C13.8683 11.2639 14 10.9471 14 10.577V1.42312C14 1.05285 13.8683 0.73594 13.6047 0.472314ZM4.30781 10.5767C4.30781 10.6555 4.28249 10.7198 4.23196 10.7704C4.18151 10.8208 4.11706 10.8458 4.03844 10.8458H1.34618C1.26774 10.8458 1.20317 10.8207 1.15266 10.7704C1.10218 10.7198 1.07699 10.6555 1.07699 10.5767V8.96124C1.07699 8.88259 1.10218 8.81823 1.15266 8.76793C1.20317 8.71727 1.26774 8.69208 1.34618 8.69208H4.03852C4.11712 8.69208 4.18168 8.71727 4.23204 8.76793C4.28246 8.81823 4.30778 8.88259 4.30778 8.96124V10.5767H4.30781ZM4.30781 7.3461C4.30781 7.42458 4.28249 7.48914 4.23196 7.53953C4.18151 7.59004 4.11706 7.61524 4.03844 7.61524H1.34618C1.26774 7.61524 1.20317 7.59004 1.15266 7.53953C1.10218 7.48911 1.07699 7.42458 1.07699 7.3461V5.73066C1.07699 5.65216 1.10218 5.58762 1.15266 5.53714C1.20317 5.48678 1.26774 5.46155 1.34618 5.46155H4.03852C4.11712 5.46155 4.18156 5.48675 4.23204 5.53714C4.28246 5.58762 4.30778 5.65216 4.30778 5.73066V7.3461H4.30781ZM4.30781 4.11534C4.30781 4.1939 4.28249 4.25835 4.23196 4.30886C4.18151 4.35922 4.11706 4.38454 4.03844 4.38454H1.34618C1.26774 4.38454 1.20317 4.35922 1.15266 4.30886C1.10218 4.25832 1.07699 4.1939 1.07699 4.11534V2.49996C1.07699 2.4214 1.10218 2.35686 1.15266 2.30644C1.20317 2.25596 1.26774 2.23076 1.34618 2.23076H4.03852C4.11712 2.23076 4.18156 2.25596 4.23204 2.30644C4.28246 2.35686 4.30778 2.4214 4.30778 2.49996V4.11534H4.30781ZM8.6155 10.5767C8.6155 10.6555 8.5903 10.7198 8.53997 10.7704C8.48955 10.8208 8.42504 10.8458 8.34636 10.8458H5.65385C5.57537 10.8458 5.51083 10.8207 5.46032 10.7704C5.40985 10.7198 5.38465 10.6555 5.38465 10.5767V8.96124C5.38465 8.88259 5.40985 8.81823 5.46032 8.76793C5.51083 8.71727 5.57537 8.69208 5.65385 8.69208H8.34624C8.4249 8.69208 8.48943 8.71727 8.53985 8.76793C8.59007 8.81823 8.61529 8.88259 8.61529 8.96124V10.5767H8.6155V10.5767ZM8.6155 7.3461C8.6155 7.42458 8.5903 7.48914 8.53997 7.53953C8.48955 7.59004 8.42504 7.61524 8.34636 7.61524H5.65385C5.57537 7.61524 5.51083 7.59004 5.46032 7.53953C5.40985 7.48911 5.38465 7.42458 5.38465 7.3461V5.73066C5.38465 5.65216 5.40985 5.58762 5.46032 5.53714C5.51083 5.48678 5.57537 5.46155 5.65385 5.46155H8.34624C8.4249 5.46155 8.48943 5.48675 8.53985 5.53714C8.59007 5.58762 8.61529 5.65216 8.61529 5.73066V7.3461H8.6155ZM8.6155 4.11534C8.6155 4.1939 8.5903 4.25835 8.53997 4.30886C8.48955 4.35922 8.42504 4.38454 8.34636 4.38454H5.65385C5.57537 4.38454 5.51083 4.35922 5.46032 4.30886C5.40985 4.25832 5.38465 4.1939 5.38465 4.11534V2.49996C5.38465 2.4214 5.40985 2.35686 5.46032 2.30644C5.51083 2.25596 5.57537 2.23076 5.65385 2.23076H8.34624C8.4249 2.23076 8.48943 2.25596 8.53985 2.30644C8.59007 2.35686 8.61529 2.4214 8.61529 2.49996V4.11534H8.6155ZM12.923 10.5767C12.923 10.6555 12.8978 10.7198 12.8475 10.7704C12.7969 10.8208 12.7324 10.8458 12.6539 10.8458H9.96183C9.88306 10.8458 9.81855 10.8207 9.76822 10.7704C9.7178 10.7198 9.69278 10.6555 9.69278 10.5767V8.96124C9.69278 8.88259 9.7178 8.81823 9.76822 8.76793C9.81855 8.71727 9.88306 8.69208 9.96183 8.69208H12.6539C12.7324 8.69208 12.7969 8.71727 12.8475 8.76793C12.8978 8.81823 12.923 8.88259 12.923 8.96124V10.5767ZM12.923 7.3461C12.923 7.42458 12.8978 7.48914 12.8475 7.53953C12.7969 7.59004 12.7324 7.61524 12.6539 7.61524H9.96183C9.88306 7.61524 9.81855 7.59004 9.76822 7.53953C9.7178 7.48911 9.69278 7.42458 9.69278 7.3461V5.73066C9.69278 5.65216 9.7178 5.58762 9.76822 5.53714C9.81855 5.48678 9.88306 5.46155 9.96183 5.46155H12.6539C12.7324 5.46155 12.7969 5.48675 12.8475 5.53714C12.8978 5.58762 12.923 5.65216 12.923 5.73066V7.3461ZM12.923 4.11534C12.923 4.1939 12.8978 4.25835 12.8475 4.30886C12.7969 4.35922 12.7324 4.38454 12.6539 4.38454H9.96183C9.88306 4.38454 9.81855 4.35922 9.76822 4.30886C9.7178 4.25832 9.69278 4.1939 9.69278 4.11534V2.49996C9.69278 2.4214 9.7178 2.35686 9.76822 2.30644C9.81855 2.25596 9.88306 2.23076 9.96183 2.23076H12.6539C12.7324 2.23076 12.7969 2.25596 12.8475 2.30644C12.8978 2.35686 12.923 2.4214 12.923 2.49996V4.11534Z" fill="#000"/>
</svg>
