<svg width="23" height="23" viewBox="0 0 23 23" fill="none" xmlns="http://www.w3.org/2000/svg">
<g clip-path="url(#clip0)">
<path d="M14.6724 8.33295C14.3749 8.33295 14.1338 8.57407 14.1338 8.87159V19.0519C14.1338 19.3492 14.3749 19.5906 14.6724 19.5906C14.9699 19.5906 15.2111 19.3492 15.2111 19.0519V8.87159C15.2111 8.57407 14.9699 8.33295 14.6724 8.33295Z" fill="black"/>
<path d="M8.31647 8.33295C8.01896 8.33295 7.77783 8.57407 7.77783 8.87159V19.0519C7.77783 19.3492 8.01896 19.5906 8.31647 19.5906C8.61399 19.5906 8.85512 19.3492 8.85512 19.0519V8.87159C8.85512 8.57407 8.61399 8.33295 8.31647 8.33295Z" fill="black"/>
<path d="M3.68424 6.84726V20.1182C3.68424 20.9026 3.97187 21.6392 4.47432 22.1678C4.97446 22.6978 5.67048 22.9987 6.39891 22.9999H16.5901C17.3188 22.9987 18.0148 22.6978 18.5147 22.1678C19.0172 21.6392 19.3048 20.9026 19.3048 20.1182V6.84726C20.3036 6.58215 20.9508 5.61723 20.8172 4.59234C20.6834 3.56766 19.8104 2.80115 18.7769 2.80094H16.0191V2.12764C16.0223 1.56143 15.7984 1.01774 15.3976 0.617763C14.9967 0.217991 14.4522 -0.0046192 13.886 9.73773e-06H9.10305C8.53684 -0.0046192 7.99231 0.217991 7.59149 0.617763C7.19066 1.01774 6.96679 1.56143 6.96995 2.12764V2.80094H4.21215C3.17864 2.80115 2.30566 3.56766 2.17184 4.59234C2.03824 5.61723 2.68545 6.58215 3.68424 6.84726ZM16.5901 21.9227H6.39891C5.47796 21.9227 4.76152 21.1315 4.76152 20.1182V6.8946H18.2275V20.1182C18.2275 21.1315 17.5111 21.9227 16.5901 21.9227ZM8.04723 2.12764C8.04365 1.84717 8.1539 1.57722 8.35295 1.37922C8.55178 1.18123 8.82236 1.07245 9.10305 1.07729H13.886C14.1667 1.07245 14.4373 1.18123 14.6361 1.37922C14.8351 1.577 14.9454 1.84717 14.9418 2.12764V2.80094H8.04723V2.12764ZM4.21215 3.87822H18.7769C19.3124 3.87822 19.7464 4.31229 19.7464 4.84777C19.7464 5.38325 19.3124 5.81732 18.7769 5.81732H4.21215C3.67667 5.81732 3.2426 5.38325 3.2426 4.84777C3.2426 4.31229 3.67667 3.87822 4.21215 3.87822Z" fill="black"/>
<path d="M11.4946 8.33295C11.1971 8.33295 10.9559 8.57407 10.9559 8.87159V19.0519C10.9559 19.3492 11.1971 19.5906 11.4946 19.5906C11.7921 19.5906 12.0332 19.3492 12.0332 19.0519V8.87159C12.0332 8.57407 11.7921 8.33295 11.4946 8.33295Z" fill="black"/>
</g>
<defs>
<clipPath id="clip0">
<rect width="23" height="23" fill="white"/>
</clipPath>
</defs>
</svg>
