<svg width="12" height="14" viewBox="0 0 12 14" fill="none" xmlns="http://www.w3.org/2000/svg">
<path d="M6 6.84692C7.55656 6.84692 8.81852 5.3142 8.81852 3.42348C8.81852 1.53272 8.4042 0 6 0C3.5958 0 3.1814 1.53272 3.1814 3.42348C3.1814 5.3142 4.44336 6.84692 6 6.84692Z" fill="#50A3A5"/>
<path d="M0.676337 12.0741C0.675856 11.9588 0.675375 12.0416 0.676337 12.0741V12.0741Z" fill="#50A3A5"/>
<path d="M11.3235 12.1642C11.325 12.1326 11.324 11.9452 11.3235 12.1642V12.1642Z" fill="#50A3A5"/>
<path d="M11.3174 11.9359C11.2652 8.6422 10.835 7.70368 7.54327 7.1096C7.54327 7.1096 7.07991 7.70004 5.99991 7.70004C4.91991 7.70004 4.45647 7.1096 4.45647 7.1096C1.20067 7.6972 0.74435 8.6218 0.68435 11.8289C0.67943 12.0908 0.67715 12.1045 0.67627 12.0741C0.67647 12.1311 0.676709 12.2364 0.676709 12.4202C0.676709 12.4202 1.46039 14 5.99991 14C10.5393 14 11.3231 12.4202 11.3231 12.4202C11.3231 12.3021 11.3232 12.22 11.3233 12.1642C11.3224 12.183 11.3207 12.1466 11.3174 11.9359Z" fill="#50A3A5"/>
</svg>
