<svg width="11" height="14" viewBox="0 0 11 14" fill="none" xmlns="http://www.w3.org/2000/svg">
<path d="M5.32397 6.84692C6.88054 6.84692 8.1425 5.3142 8.1425 3.42348C8.1425 1.53272 7.72818 0 5.32397 0C2.91977 0 2.50537 1.53272 2.50537 3.42348C2.50537 5.3142 3.76733 6.84692 5.32397 6.84692Z" fill="#EB5233"/>
<path d="M0.000555515 12.0742C7.44249e-05 11.9588 -0.000406665 12.0417 0.000555515 12.0742V12.0742Z" fill="#EB5233"/>
<path d="M10.6475 12.1642C10.649 12.1326 10.648 11.9452 10.6475 12.1642V12.1642Z" fill="#EB5233"/>
<path d="M10.6416 11.9359C10.5894 8.64222 10.1592 7.7037 6.86749 7.10962C6.86749 7.10962 6.40413 7.70006 5.32413 7.70006C4.24413 7.70006 3.78069 7.10962 3.78069 7.10962C0.524888 7.69722 0.0685683 8.62182 0.00856827 11.8289C0.00364827 12.0908 0.00136828 12.1045 0.000488281 12.0741C0.000688281 12.1311 0.000928192 12.2365 0.000928192 12.4202C0.000928192 12.4202 0.784608 14 5.32413 14C9.86357 14 10.6473 12.4202 10.6473 12.4202C10.6473 12.3021 10.6474 12.2201 10.6475 12.1642C10.6467 12.183 10.6449 12.1466 10.6416 11.9359Z" fill="#EB5233"/>
</svg>
