<svg width="15" height="15" viewBox="0 0 15 15" fill="none" xmlns="http://www.w3.org/2000/svg">
<path d="M4.7484 11.7152C4.74347 11.7205 4.73855 11.7258 4.73372 11.731C4.43729 12.0499 4.66452 12.5684 5.10005 12.5684H9.89993C10.3355 12.5684 10.5627 12.0499 10.2663 11.731C10.2615 11.7258 10.2566 11.7205 10.2516 11.7152C9.80597 11.2388 8.12849 9.82329 8.1069 9.80475C7.75762 9.50519 7.24238 9.50519 6.89313 9.80475C6.87154 9.82327 5.19406 11.2388 4.7484 11.7152Z" fill="#717781"/>
<path d="M9.78888 7.0577C9.92854 6.93621 10.0882 6.80197 10.2573 6.65982C11.5046 5.61132 13.2129 4.17536 13.2129 2.66602V1.75781C13.2129 0.788555 12.4243 0 11.4551 0H3.54492C2.57566 0 1.78711 0.788555 1.78711 1.75781V2.66602C1.78711 4.17536 3.49535 5.61132 4.74267 6.65985C4.91177 6.802 5.07146 6.93624 5.21112 7.05773C5.34381 7.17319 5.41992 7.33438 5.41992 7.50003C5.41992 7.66564 5.34384 7.82684 5.21112 7.94229C5.07146 8.06379 4.91177 8.19803 4.74267 8.34018C3.49535 9.38868 1.78711 10.8246 1.78711 12.334V13.2422C1.78711 14.2114 2.57566 15 3.54492 15H11.4551C12.4243 15 13.2129 14.2114 13.2129 13.2422C13.2129 12.9186 12.9506 12.6562 12.627 12.6562C12.3033 12.6562 12.041 12.9186 12.041 13.2422C12.041 13.5653 11.7782 13.8281 11.4551 13.8281H3.54492C3.22184 13.8281 2.95898 13.5653 2.95898 13.2422V12.334C2.95898 11.3705 4.54758 10.0351 5.49671 9.23719C5.66971 9.09179 5.83313 8.95441 5.98028 8.82639C6.36891 8.48827 6.5918 8.00481 6.5918 7.5C6.5918 6.99516 6.36891 6.5117 5.98031 6.17358C5.83315 6.04559 5.66974 5.90821 5.49674 5.76278C4.54758 4.96491 2.95898 3.62953 2.95898 2.66602V1.75781C2.95898 1.43473 3.22184 1.17188 3.54492 1.17188H11.4551C11.7782 1.17188 12.041 1.43473 12.041 1.75781V2.66602C12.041 3.62953 10.4524 4.96491 9.50329 5.76278C9.33029 5.90818 9.16687 6.04556 9.01972 6.17358C8.63109 6.5117 8.4082 6.99516 8.4082 7.5C8.4082 8.00484 8.63109 8.4883 9.01969 8.82639C9.17306 8.95977 9.34392 9.1028 9.52482 9.25424C10.0949 9.7314 10.741 10.2722 11.2509 10.8476C11.4656 11.0898 11.8359 11.1121 12.0781 10.8975C12.3202 10.6828 12.3426 10.3125 12.1279 10.0703C11.5601 9.42961 10.8486 8.83412 10.277 8.35561C10.1005 8.20787 9.93378 8.06833 9.78888 7.94227C9.65619 7.82681 9.58008 7.66562 9.58008 7.5C9.58008 7.33438 9.65619 7.17316 9.78888 7.0577Z" fill="#717781"/>
<path d="M8.13311 5.4268C8.14368 5.41757 8.5527 5.06624 9.01843 4.65419C9.38344 4.33125 9.15873 3.7207 8.67484 3.7207H6.38376C5.89987 3.7207 5.67516 4.33125 6.04017 4.65419C6.5059 5.06627 6.91492 5.41757 6.92549 5.4268C7.27298 5.73011 7.78559 5.73011 8.13311 5.4268Z" fill="#717781"/>
</svg>
