<svg width="14" height="14" viewBox="0 0 14 14" fill="none" xmlns="http://www.w3.org/2000/svg">
<g clip-path="url(#clip0)">
<path d="M8.13587 0.512709C7.97347 0.435242 7.78213 0.455776 7.64213 0.568709L3.1024 4.20031H0.933333C0.419067 4.20031 0 4.61938 0 5.13364V8.86698C0 9.38218 0.419067 9.80031 0.933333 9.80031H3.1024L7.6412 13.4319C7.72613 13.4991 7.82973 13.5336 7.93333 13.5336C8.0024 13.5336 8.07147 13.5178 8.13587 13.487C8.29733 13.4095 8.4 13.2462 8.4 13.067V0.933642C8.4 0.754442 8.29733 0.591109 8.13587 0.512709Z" fill="#7F838A"/>
<path d="M10.7623 3.69997C10.5784 3.5189 10.2835 3.5217 10.1024 3.7037C9.92135 3.88757 9.92321 4.1825 10.1061 4.3645C10.8117 5.06077 11.2 5.9969 11.2 7.00024C11.2 8.00357 10.8117 8.9397 10.1061 9.63597C9.92321 9.8161 9.92135 10.112 10.1024 10.2958C10.1939 10.3882 10.3143 10.434 10.4337 10.434C10.5523 10.434 10.6708 10.3892 10.7623 10.2986C11.6471 9.42783 12.1333 8.25557 12.1333 7.00024C12.1333 5.7449 11.6471 4.57263 10.7623 3.69997Z" fill="#7F838A"/>
<path d="M12.0792 2.38497C11.8954 2.20297 11.6004 2.20483 11.4184 2.38777C11.2374 2.5707 11.2392 2.86657 11.4212 3.04763C12.4824 4.0995 13.0667 5.50323 13.0667 7.0003C13.0667 8.49737 12.4824 9.90017 11.4212 10.952C11.2392 11.134 11.2374 11.4299 11.4184 11.6128C11.5108 11.7043 11.6303 11.75 11.7498 11.75C11.8683 11.75 11.9878 11.7052 12.0792 11.6147C13.3187 10.3874 14 8.74843 14 7.0003C14 5.25217 13.3187 3.61323 12.0792 2.38497Z" fill="#7F838A"/>
</g>
<defs>
<clipPath id="clip0">
<rect width="14" height="14" fill="white"/>
</clipPath>
</defs>
</svg>
