<svg width="14" height="14" viewBox="0 0 14 14" fill="none" xmlns="http://www.w3.org/2000/svg">
<path d="M0.5 7C0.5 3.41628 3.41628 0.5 7 0.5C10.5837 0.5 13.5 3.41628 13.5 7C13.5 10.5837 10.5837 13.5 7 13.5C3.41628 13.5 0.5 10.5837 0.5 7ZM1.03005 7C1.03005 10.2923 3.70765 12.9699 7 12.9699C10.2923 12.9699 12.9699 10.2923 12.9699 7C12.9699 3.70781 10.2924 1.03005 7 1.03005C3.70764 1.03005 1.03005 3.70781 1.03005 7Z" fill="#7F838A" stroke="#7F838A"/>
<path d="M7.60588 7.00835V4.07449C7.60588 3.7469 7.34043 3.48145 7.01297 3.48145C6.68541 3.48145 6.41992 3.7469 6.41992 4.07449V7.1978C6.41992 7.20713 6.42222 7.21588 6.42267 7.2252C6.41487 7.38646 6.47042 7.55019 6.59358 7.67337L8.80222 9.88185C9.03388 10.1135 9.40934 10.1135 9.64082 9.88185C9.87233 9.65019 9.87248 9.27473 9.64082 9.04322L7.60588 7.00835Z" fill="#7F838A"/>
</svg>
