<svg width="14" height="14" viewBox="0 0 14 14" fill="none" xmlns="http://www.w3.org/2000/svg">
<path d="M9.41916 2.88007L0.0273438 12.2719L1.7555 14L11.1473 4.60822L9.41916 2.88007ZM7.94582 5.51775L9.41916 4.04442L9.98296 4.60822L8.50962 6.08155L7.94582 5.51775Z" fill="black"/>
<path d="M12.265 1.12554L11.2354 2.15521L11.8175 2.73738L12.8472 1.70771L12.265 1.12554Z" fill="black"/>
<path d="M11.6832 6.91393L11.1011 7.49609L12.1502 8.54517L12.7323 7.96301L11.6832 6.91393Z" fill="black"/>
<path d="M6.0099 1.2401L5.42773 1.82227L6.4703 2.86484L7.05246 2.28267L6.0099 1.2401Z" fill="black"/>
<path d="M13.9654 4.48077H12.481V5.30412H13.9654H13.9726V4.48077H13.9654Z" fill="black"/>
<path d="M8.66846 0.000492187V1.48496H9.4918V0.000492187V0L8.66846 0.000492187Z" fill="black"/>
</svg>
